<?xml version="1.0" encoding="iso-8859-1"?>
<!-- Generator: Adobe Illustrator 18.0.0, SVG Export Plug-In . SVG Version: 6.00 Build 0)  -->
<!DOCTYPE svg PUBLIC "-//W3C//DTD SVG 1.1//EN" "http://www.w3.org/Graphics/SVG/1.1/DTD/svg11.dtd">
<svg version="1.1" id="Capa_1" xmlns="http://www.w3.org/2000/svg" xmlns:xlink="http://www.w3.org/1999/xlink" x="0px" y="0px"
	 viewBox="0 0 297 297" style="enable-background:new 0 0 297 297;" xml:space="preserve">
<g>
	<path d="M191.618,288.846C249.94,287.592,297,239.733,297,181.116c0-50.372-34.753-92.774-81.539-104.504V32.863
		c0-13.625-11.084-24.709-24.709-24.709H24.709C11.084,8.154,0,19.238,0,32.863v231.275c0,13.625,11.084,24.709,24.709,24.709
		H191.618z M24.709,269.079c-2.678,0-4.942-2.263-4.942-4.942V32.863c0-2.678,2.263-4.942,4.942-4.942h166.043
		c2.678,0,4.942,2.263,4.942,4.942v40.719c-2.126-0.126-4.267-0.197-6.424-0.197c-59.403,0-107.731,48.328-107.731,107.73
		c0,36.283,18.032,68.433,45.603,87.963H24.709z M189.27,269.079c-48.504,0-87.963-39.46-87.963-87.963s39.46-87.963,87.963-87.963
		c48.504,0,87.963,39.46,87.963,87.963S237.773,269.079,189.27,269.079z"/>
	<path d="M189.27,147.348c-18.621,0-33.769,15.149-33.769,33.768c0,18.62,15.149,33.768,33.769,33.768
		c18.619,0,33.768-15.149,33.768-33.768C223.038,162.496,207.889,147.348,189.27,147.348z M189.27,195.117
		c-7.721,0-14.002-6.281-14.002-14.001c0-7.721,6.281-14.001,14.002-14.001c7.72,0,14.001,6.281,14.001,14.001
		C203.271,188.836,196.99,195.117,189.27,195.117z"/>
</g>
<g>
</g>
<g>
</g>
<g>
</g>
<g>
</g>
<g>
</g>
<g>
</g>
<g>
</g>
<g>
</g>
<g>
</g>
<g>
</g>
<g>
</g>
<g>
</g>
<g>
</g>
<g>
</g>
<g>
</g>
</svg>
