<svg width="92" height="24" xmlns="http://www.w3.org/2000/svg" fill="none">

 <g>
  <title>Layer 1</title>
  <path id="svg_1" fill="#000000" d="m16.6465,2.2253c0.3004,0.30041 0.3004,0.78746 0,1.08786l-4.1026,4.10256c-0.3004,0.30041 -0.7874,0.30041 -1.0878,0l-3.07695,-3.07692c-0.3004,-0.3004 -0.3004,-0.78745 0,-1.08786c0.3004,-0.3004 0.78745,-0.3004 1.08786,0l2.53299,2.533l3.5586,-3.55864c0.3004,-0.3004 0.7875,-0.3004 1.0879,0z" clip-rule="evenodd" fill-rule="evenodd"/>
  <path id="svg_2" fill="#000000" d="m16.6465,11.4561c0.3004,0.3004 0.3004,0.7874 0,1.0878l-3.0769,3.077c-0.3004,0.3004 -0.7875,0.3004 -1.0879,0l-1.5073,-1.5074l-2.53304,2.533c-0.3004,0.3004 -0.78745,0.3004 -1.08785,0c-0.30041,-0.3004 -0.30041,-0.7875 0,-1.0879l3.07689,-3.0769c0.3004,-0.3004 0.7875,-0.3004 1.0879,0l1.5073,1.5074l2.533,-2.533c0.3004,-0.3004 0.7875,-0.3004 1.0879,0z" clip-rule="evenodd" fill-rule="evenodd"/>
  <path id="svg_3" fill="#000000" d="m11.58391,8.05712c-2.18487,0 -5.17429,0.18626 -7.02285,0.31887c-0.60043,0.04307 -1.07505,0.50559 -1.13268,1.09902c-0.13883,1.42938 -0.30601,3.47168 -0.30601,4.99238c0,1.5207 0.16718,3.563 0.30601,4.9923c0.05763,0.5935 0.53225,1.056 1.13268,1.0991c1.84856,0.1326 4.83798,0.3188 7.02285,0.3188c2.1849,0 5.1743,-0.1862 7.0229,-0.3188c0.6004,-0.0431 1.075,-0.5056 1.1326,-1.0991c0.1389,-1.4293 0.306,-3.4716 0.306,-4.9923c0,-1.5207 -0.1671,-3.563 -0.306,-4.99238c-0.0576,-0.59343 -0.5322,-1.05595 -1.1326,-1.09902c-1.8486,-0.13261 -4.838,-0.31887 -7.0229,-0.31887zm-7.13293,-1.21565c1.84924,-0.13266 4.88748,-0.32282 7.13293,-0.32282c2.2455,0 5.2837,0.19016 7.1329,0.32282c1.3429,0.09633 2.4232,1.13904 2.5539,2.48481c0.1392,1.43311 0.3132,3.53971 0.3132,5.14111c0,1.6014 -0.174,3.708 -0.3132,5.1411c-0.1307,1.3457 -1.211,2.3885 -2.5539,2.4848c-1.8492,0.1326 -4.8875,0.3228 -7.1329,0.3228c-2.24545,0 -5.2837,-0.1902 -7.13293,-0.3228c-1.34291,-0.0963 -2.42315,-1.1391 -2.55386,-2.4848c-0.13919,-1.4331 -0.31321,-3.5397 -0.31321,-5.1411c0,-1.6014 0.17402,-3.708 0.31321,-5.14111c0.13071,-1.34577 1.21095,-2.38848 2.55386,-2.48481z" clip-rule="evenodd" fill-rule="evenodd"/>
  <text transform="matrix(1 0 0 0.761517 -1.38696 2.91925)" stroke="#000" xml:space="preserve" text-anchor="start" font-family="'Caveat'" font-size="24" id="svg_4" y="19.79434" x="27.32247" stroke-width="0" fill="#000000">jaajTV</text>
 </g>
</svg>